<svg width="2000" height="2000" viewBox="0 0 2000 2000" fill="none" xmlns="http://www.w3.org/2000/svg">
<circle cx="1000" cy="1000" r="1000" fill="#000080"/>
<path d="M1113.53 158.429C1122.13 154.86 1132.35 158.149 1137.04 166.487L1137.26 166.895V166.896C1142.12 176.074 1138.6 187.375 1129.49 192.23H1129.49C1081.15 218.004 1013.48 262.605 960.635 316.517C911.26 366.886 876.811 423.312 879.641 478.939C936.748 453.92 1018.58 422.999 1093.09 405.312C1133.11 395.81 1171.63 389.974 1203.3 391.198C1234.31 392.397 1261.98 400.527 1275.84 422.489C1299.89 457.683 1288.36 495.95 1265.46 526.276C1242.52 556.656 1206.49 581.853 1174.68 594.057C1133.83 609.727 1074.61 621.429 1013.2 623.695C954.556 625.86 892.838 619.457 842.654 598.86C799.915 648.187 760.907 702.984 735.584 756.59C709.212 812.418 698.396 865.421 711.637 909.327C724.651 952.482 761.822 989.64 838.055 1012.2C912.936 1034.36 1024.27 1041.97 1183.41 1027.37C1174.64 975.761 1144.65 945.6 1109 928.585C1070.52 910.223 1025.32 907.217 993.427 910.729L982.332 911.951V900.789C982.333 864.795 1011.53 835.631 1047.54 835.631H1337.95V845.631C1337.95 881.625 1308.75 910.789 1272.75 910.789H1206.97C1252.39 958.679 1269.17 1023.33 1270.43 1087.54C1271.67 1150.46 1258.07 1214.06 1240.8 1263.77H1677.01C1693.01 1263.77 1706 1276.74 1706 1292.75V1292.75C1706 1308.58 1693.3 1321.46 1677.48 1321.72L1222.47 1329.17C1173.99 1490.04 1059.96 1656.09 823.605 1708.17L823.313 1708.24L823.019 1708.28C758.18 1718.56 668.926 1715.96 594.062 1692.47C519.579 1669.11 455.67 1623.65 449.572 1545.97C445.851 1498.56 460.319 1456.18 491.396 1419.82C522.268 1383.7 569.228 1353.83 630.231 1330.22C750.846 1283.53 928.967 1260.33 1155.07 1263.65C1172.97 1205.8 1181.72 1149.06 1184.13 1102.25C1142.38 1124.08 1087.66 1137.75 1028.36 1143.49C961.006 1150 886.865 1146.36 817.377 1132.21C747.969 1118.07 682.588 1093.32 633.205 1057.14C583.693 1020.86 549.752 972.644 545.088 912.063C531.879 740.494 656.867 608.805 768.849 535.902C760.331 454.598 821.666 287.756 1113.11 158.607L1113.53 158.429ZM1130.74 1329.17C895.505 1327.72 748.745 1352.79 663.271 1387.23C619.648 1404.81 592.781 1424.51 578.021 1443.61C563.492 1462.41 560.539 1480.73 564.747 1497.18C571.55 1523.78 598.616 1544.02 633.779 1558.36C668.236 1572.41 707.317 1579.46 732.733 1581.61C845.731 1587.03 931.781 1556.23 996.89 1506.6C1058.06 1459.97 1101.28 1396.31 1130.74 1329.17ZM1191.7 466.866C1183.36 461.1 1167.4 458.514 1144.42 460.4C1122.05 462.237 1095.2 468.108 1067.13 476.737C1016.9 492.178 964.21 516 928.134 539.63C950.803 551.719 978.526 556.494 1008.1 555.762C1043.18 554.892 1079.95 546.278 1111.86 534.016C1143.93 521.691 1170.15 506.052 1184.65 491.809C1192.05 484.551 1195.28 478.745 1195.96 474.895C1196.27 473.198 1196.06 472.006 1195.62 471.031C1195.15 469.996 1194.1 468.531 1191.7 466.866Z" fill="white" stroke="white" stroke-width="20"/>
</svg>
